<svg width="336" height="58" viewBox="0 0 336 58" fill="none" xmlns="http://www.w3.org/2000/svg">
<path d="M87.8951 35.3552C87.8951 37.7285 87.0074 39.5765 85.2229 40.9262C83.4383 42.2668 80.8566 42.9372 77.4778 42.9372C76.0918 42.9372 74.8055 42.8285 73.6279 42.6201C72.4503 42.4118 71.4448 42.1038 70.6114 41.7143C69.778 41.3248 69.1258 40.8628 68.6638 40.3374C68.2018 39.8029 67.9663 39.2232 67.9663 38.5891C67.9663 38.0546 68.1022 37.5655 68.3649 37.1035C68.6276 36.6415 68.999 36.2701 69.461 35.9893C70.4574 36.6234 71.5988 37.2122 72.876 37.7376C74.1533 38.272 75.657 38.5347 77.36 38.5347C78.9634 38.5347 80.1863 38.263 81.0469 37.7104C81.8984 37.1578 82.3241 36.3788 82.3241 35.3461C82.3241 34.4584 82.0343 33.7518 81.4454 33.2264C80.8566 32.6919 79.9961 32.2934 78.8547 32.0035L75.2222 31.0524C72.8036 30.4183 71.019 29.5486 69.8777 28.4526C68.7363 27.3565 68.1656 25.8527 68.1656 23.9414C68.1656 22.9178 68.383 21.9485 68.8087 21.0517C69.2345 20.1459 69.8686 19.3759 70.702 18.7146C71.5354 18.0624 72.5771 17.546 73.8272 17.1746C75.0773 16.8032 76.4995 16.6221 78.1028 16.6221C79.3801 16.6221 80.5486 16.7217 81.5994 16.9119C82.6502 17.1022 83.5561 17.3739 84.3261 17.7091C85.087 18.0443 85.6848 18.461 86.1106 18.9592C86.5364 19.4574 86.7538 19.9828 86.7538 20.5535C86.7538 21.1151 86.6269 21.6043 86.3824 22.0119C86.1378 22.4196 85.8117 22.7457 85.4222 22.9902C84.779 22.6007 83.8278 22.175 82.5687 21.722C81.3005 21.26 79.9417 21.0336 78.4833 21.0336C76.9886 21.0336 75.811 21.2872 74.9595 21.8036C74.108 22.3199 73.6732 23.0355 73.6732 23.9504C73.6732 24.657 73.9178 25.2458 74.3979 25.6987C74.878 26.1607 75.7023 26.5321 76.8799 26.813L79.978 27.6101C82.6865 28.3167 84.6793 29.2769 85.9566 30.4726C87.252 31.6774 87.8951 33.3079 87.8951 35.3552Z" fill="#289146"/>
<path d="M95.1602 32.6014C95.6585 34.6124 96.6277 36.107 98.068 37.0854C99.5083 38.0546 101.356 38.5438 103.594 38.5438C105.088 38.5438 106.456 38.3173 107.706 37.8553C108.956 37.3933 109.953 36.9042 110.696 36.3697C111.692 36.9314 112.19 37.7285 112.19 38.7521C112.19 39.35 111.955 39.9116 111.493 40.4189C111.031 40.9352 110.397 41.3701 109.6 41.7415C108.802 42.1129 107.851 42.4027 106.773 42.6201C105.686 42.8285 104.518 42.9372 103.277 42.9372C101.211 42.9372 99.3362 42.6564 97.6423 42.0857C95.9483 41.5241 94.4989 40.6725 93.2942 39.5402C92.0803 38.4079 91.1473 37.0129 90.4951 35.3461C89.8338 33.6884 89.5077 31.7589 89.5077 29.5668C89.5077 27.447 89.8247 25.581 90.4679 23.9686C91.1111 22.3561 91.9807 21.0155 93.0858 19.9375C94.191 18.8595 95.4863 18.0352 96.981 17.4736C98.4757 16.9119 100.079 16.6221 101.791 16.6221C103.503 16.6221 105.061 16.8938 106.465 17.4464C107.869 17.999 109.083 18.7508 110.098 19.7292C111.112 20.6984 111.891 21.8579 112.444 23.1986C112.997 24.5393 113.268 26.0067 113.268 27.601C113.268 28.4888 113.051 29.1319 112.625 29.5396C112.199 29.9472 111.574 30.219 110.759 30.3639L95.1602 32.6014ZM101.782 20.9339C99.8254 20.9339 98.1948 21.5862 96.8995 22.8997C95.595 24.2041 94.9156 26.0792 94.8432 28.525L107.978 26.668C107.833 25.0737 107.244 23.724 106.212 22.6098C105.179 21.4865 103.702 20.9339 101.782 20.9339Z" fill="#289146"/>
<path d="M123.994 16.6313C127.3 16.6313 129.936 17.347 131.902 18.7782C133.858 20.2095 134.837 22.4651 134.837 25.545V37.9008C134.837 38.7161 134.646 39.3411 134.275 39.785C133.904 40.2289 133.396 40.6456 132.753 41.0351C131.829 41.5696 130.634 42.0225 129.175 42.412C127.717 42.8015 126.023 42.9918 124.102 42.9918C120.651 42.9918 117.952 42.3214 116.013 40.9808C114.074 39.6401 113.105 37.6563 113.105 35.0383C113.105 32.7012 113.857 30.9167 115.379 29.6847C116.892 28.4437 119.075 27.6918 121.919 27.402L129.338 26.6592V25.4906C129.338 23.9325 128.831 22.8002 127.816 22.0937C126.802 21.3871 125.389 21.0338 123.568 21.0338C122.146 21.0338 120.769 21.2331 119.455 21.6136C118.142 22.0031 116.964 22.4469 115.931 22.9361C115.578 22.6553 115.27 22.3111 115.026 21.9034C114.781 21.4958 114.654 21.0429 114.654 20.5537C114.654 19.9558 114.808 19.4576 115.107 19.0681C115.406 18.6786 115.886 18.3434 116.52 18.0626C117.517 17.5644 118.658 17.202 119.935 16.9756C121.222 16.7491 122.571 16.6313 123.994 16.6313ZM124.102 38.6436C125.352 38.6436 126.43 38.5168 127.363 38.2722C128.287 38.0277 128.949 37.7559 129.338 37.4751V30.7446L123.513 31.3243C121.874 31.5055 120.651 31.8588 119.827 32.4114C119.011 32.9639 118.595 33.7973 118.595 34.9296C118.595 36.0982 119.039 37.004 119.926 37.6563C120.832 38.3175 122.218 38.6436 124.102 38.6436Z" fill="#289146"/>
<path d="M143.279 42.0947C143.035 42.2034 142.681 42.294 142.237 42.3845C141.794 42.4751 141.304 42.5204 140.77 42.5204C139.737 42.5204 138.967 42.3302 138.478 41.9407C137.98 41.5512 137.726 40.899 137.726 39.975V22.5825C137.726 21.6948 137.908 20.9792 138.261 20.4357C138.614 19.8922 139.185 19.3668 139.973 18.8685C141.006 18.2344 142.319 17.7 143.922 17.2742C145.526 16.8485 147.283 16.6401 149.213 16.6401C152.347 16.6401 153.914 17.5279 153.914 19.2943C153.914 19.72 153.841 20.1186 153.697 20.49C153.552 20.8614 153.398 21.1875 153.216 21.4683C152.863 21.3959 152.419 21.3234 151.885 21.26C151.35 21.1875 150.78 21.1513 150.173 21.1513C148.751 21.1513 147.446 21.3053 146.278 21.6042C145.1 21.9032 144.104 22.2836 143.288 22.7456V42.0947H143.279Z" fill="#289146"/>
<path d="M165.917 21.1423C164.775 21.1423 163.724 21.3235 162.764 21.6949C161.804 22.0663 160.98 22.6188 160.282 23.3616C159.585 24.1044 159.032 25.0194 158.624 26.0973C158.217 27.1753 158.008 28.4254 158.008 29.8385C158.008 32.6285 158.742 34.7664 160.201 36.2248C161.659 37.6923 163.561 38.426 165.917 38.426C167.266 38.426 168.426 38.2539 169.386 37.9006C170.346 37.5473 171.18 37.1216 171.895 36.6234C172.357 36.9042 172.729 37.2393 173.018 37.6289C173.299 38.0184 173.444 38.4985 173.444 39.0601C173.444 40.1562 172.72 41.0711 171.279 41.8139C169.839 42.5567 167.937 42.9281 165.59 42.9281C163.634 42.9281 161.84 42.6654 160.228 42.131C158.606 41.5965 157.211 40.7903 156.034 39.6942C154.856 38.5981 153.941 37.2303 153.28 35.5816C152.619 33.942 152.292 32.0216 152.292 29.8294C152.292 27.6373 152.637 25.7078 153.334 24.0501C154.032 22.3924 154.974 21.0064 156.17 19.9103C157.365 18.8142 158.76 17.9899 160.364 17.4464C161.967 16.9029 163.661 16.6221 165.436 16.6221C166.614 16.6221 167.674 16.7308 168.616 16.9391C169.558 17.1475 170.373 17.4464 171.044 17.8178C171.723 18.1892 172.248 18.615 172.62 19.0951C172.991 19.5752 173.182 20.0734 173.182 20.6078C173.182 21.1061 173.046 21.5499 172.783 21.9576C172.52 22.3652 172.185 22.6732 171.796 22.8815C171.044 22.4195 170.219 22.0119 169.314 21.6586C168.399 21.3235 167.275 21.1423 165.917 21.1423Z" fill="#289146"/>
<path d="M191.525 22.447C190.474 21.5412 189.097 21.0973 187.385 21.0973C186.244 21.0973 185.202 21.2785 184.26 21.6499C183.318 22.0213 182.485 22.4742 181.778 22.9996V42.095C181.533 42.2037 181.18 42.2943 180.736 42.3849C180.292 42.4755 179.803 42.5208 179.269 42.5208C178.236 42.5208 177.466 42.3306 176.977 41.941C176.479 41.5515 176.225 40.8993 176.225 39.9753V7.78122C176.47 7.70875 176.832 7.61817 177.294 7.51852C177.756 7.40982 178.254 7.35547 178.789 7.35547C179.821 7.35547 180.573 7.5457 181.062 7.93522C181.542 8.32473 181.787 8.97695 181.787 9.90092V18.2801C182.602 17.8543 183.553 17.4739 184.64 17.1387C185.728 16.8035 186.941 16.6314 188.3 16.6314C191.398 16.6314 193.898 17.4467 195.801 19.0682C197.703 20.6987 198.654 23.1717 198.654 26.4962V42.086C198.409 42.1947 198.047 42.2853 197.585 42.3758C197.123 42.4664 196.643 42.5117 196.145 42.5117C195.076 42.5117 194.306 42.3215 193.826 41.932C193.346 41.5425 193.101 40.8902 193.101 39.9663V26.7045C193.101 24.766 192.576 23.3438 191.525 22.447Z" fill="#289146"/>
<path d="M231.528 22.175C230.658 21.4503 229.471 21.0879 227.977 21.0879C226.98 21.0879 226.029 21.2691 225.123 21.6405C224.217 22.0119 223.384 22.5192 222.641 23.1533C222.714 23.4341 222.768 23.733 222.804 24.0591C222.84 24.3762 222.859 24.6932 222.859 25.0103V42.0857C222.605 42.1944 222.252 42.285 221.79 42.3755C221.328 42.4661 220.848 42.5114 220.349 42.5114C219.317 42.5114 218.547 42.3212 218.058 41.9317C217.559 41.5422 217.306 40.8899 217.306 39.966V25.59C217.306 24.032 216.862 22.8906 215.974 22.1659C215.086 21.4412 213.891 21.0789 212.396 21.0789C211.4 21.0789 210.457 21.2419 209.57 21.559C208.682 21.876 207.93 22.2293 207.323 22.6188V42.0857C207.079 42.1944 206.725 42.285 206.281 42.3755C205.838 42.4661 205.348 42.5114 204.814 42.5114C203.781 42.5114 203.011 42.3212 202.522 41.9317C202.024 41.5422 201.77 40.8899 201.77 39.966V22.4648C201.77 21.6496 201.933 20.9974 202.25 20.4991C202.567 20.0009 203.102 19.5117 203.854 19.0135C204.886 18.3432 206.182 17.7725 207.749 17.3196C209.316 16.8576 210.901 16.6311 212.505 16.6311C214.18 16.6311 215.684 16.8576 217.016 17.3196C218.347 17.7816 219.444 18.4519 220.304 19.3306C221.301 18.5515 222.487 17.9084 223.855 17.392C225.223 16.8757 226.817 16.6221 228.638 16.6221C230.024 16.6221 231.328 16.7942 232.533 17.1294C233.747 17.4645 234.789 17.999 235.658 18.7237C236.528 19.4483 237.216 20.3633 237.715 21.4593C238.213 22.5554 238.466 23.8599 238.466 25.3817V42.0857C238.186 42.1944 237.814 42.285 237.37 42.3755C236.927 42.4661 236.437 42.5114 235.903 42.5114C234.87 42.5114 234.1 42.3212 233.611 41.9317C233.113 41.5422 232.859 40.8899 232.859 39.966V25.59C232.832 24.041 232.397 22.8996 231.528 22.175Z" fill="#289146"/>
<path d="M246.556 36.4154C245.668 34.6852 244.581 32.2213 243.295 29.0417C242.008 25.8622 240.767 22.2569 239.554 18.2258C239.871 17.8363 240.305 17.5102 240.84 17.2475C241.374 16.9848 241.945 16.8489 242.552 16.8489C243.331 16.8489 243.974 17.0301 244.472 17.4015C244.971 17.7729 245.378 18.416 245.704 19.34C246.665 22.2025 247.661 25.0197 248.694 27.8007C249.726 30.5726 250.868 33.4442 252.109 36.4154H252.326C252.861 35.2831 253.404 33.9605 253.957 32.4387C254.509 30.9168 255.053 29.3135 255.587 27.6105C256.122 25.9165 256.62 24.1863 257.082 22.438C257.544 20.6897 257.952 19.0139 258.314 17.4287C258.667 17.2565 259.039 17.1116 259.41 17.0029C259.781 16.8942 260.216 16.8398 260.714 16.8398C261.493 16.8398 262.155 17.021 262.689 17.3924C263.224 17.7638 263.486 18.3345 263.486 19.1135C263.486 20.0375 263.242 21.4416 262.762 23.3258C262.282 25.219 261.647 27.3025 260.868 29.5852C260.089 31.868 259.193 34.1689 258.196 36.506C257.2 38.8431 256.203 40.9084 255.207 42.7111C253.422 45.8182 251.819 48.1915 250.369 49.813C248.929 51.4435 247.561 52.2497 246.284 52.2497C245.288 52.2497 244.5 51.978 243.911 51.4254C243.322 50.8728 242.96 50.1935 242.815 49.3872C243.385 48.889 244.01 48.2912 244.681 47.5846C245.36 46.878 246.03 46.1171 246.71 45.3018C247.389 44.4866 248.023 43.6532 248.63 42.7836C249.237 41.9139 249.754 41.0805 250.179 40.2653C249.572 40.0841 248.984 39.7399 248.413 39.2326C247.86 38.7434 247.235 37.7923 246.556 36.4154Z" fill="#289146"/>
<path d="M284.258 35.3552C284.258 37.7285 283.37 39.5765 281.585 40.9262C279.801 42.2668 277.228 42.9372 273.84 42.9372C272.454 42.9372 271.168 42.8285 269.999 42.6201C268.822 42.4118 267.816 42.1038 266.983 41.7143C266.15 41.3248 265.497 40.8628 265.035 40.3374C264.573 39.8029 264.338 39.2232 264.338 38.5891C264.338 38.0546 264.474 37.5655 264.736 37.1035C265.008 36.6415 265.371 36.2701 265.833 35.9893C266.829 36.6234 267.97 37.2122 269.248 37.7376C270.534 38.272 272.029 38.5347 273.732 38.5347C275.335 38.5347 276.558 38.263 277.418 37.7104C278.27 37.1578 278.696 36.3788 278.696 35.3461C278.696 34.4584 278.406 33.7518 277.817 33.2264C277.228 32.6919 276.368 32.2934 275.226 32.0035L271.594 31.0524C269.175 30.4183 267.391 29.5486 266.249 28.4526C265.108 27.3565 264.537 25.8527 264.537 23.9414C264.537 22.9178 264.755 21.9485 265.18 21.0517C265.606 20.1459 266.24 19.3759 267.074 18.7146C267.907 18.0624 268.949 17.546 270.199 17.1746C271.449 16.8032 272.871 16.6221 274.474 16.6221C275.761 16.6221 276.92 16.7217 277.971 16.9119C279.022 17.1022 279.928 17.3739 280.698 17.7091C281.459 18.0443 282.056 18.461 282.482 18.9592C282.908 19.4574 283.125 19.9828 283.125 20.5535C283.125 21.1151 282.999 21.6043 282.754 22.0119C282.5 22.4196 282.183 22.7457 281.794 22.9902C281.151 22.6007 280.199 22.175 278.94 21.722C277.672 21.26 276.313 21.0336 274.855 21.0336C273.36 21.0336 272.183 21.2872 271.331 21.8036C270.48 22.3199 270.054 23.0355 270.054 23.9504C270.054 24.657 270.289 25.2458 270.779 25.6987C271.259 26.1607 272.083 26.5321 273.261 26.813L276.359 27.6101C279.067 28.3167 281.06 29.2769 282.337 30.4726C283.624 31.6774 284.258 33.3079 284.258 35.3552Z" fill="#289146"/>
<path d="M286.558 9.73781C286.558 8.8229 286.875 8.05292 287.519 7.42788C288.162 6.81189 288.977 6.50391 289.973 6.50391C290.97 6.50391 291.767 6.81189 292.374 7.42788C292.981 8.04386 293.28 8.81384 293.28 9.73781C293.28 10.6618 292.981 11.4227 292.374 12.0477C291.767 12.6637 290.97 12.9717 289.973 12.9717C288.977 12.9717 288.162 12.6637 287.519 12.0477C286.875 11.4318 286.558 10.6618 286.558 9.73781ZM292.754 42.095C292.51 42.2037 292.157 42.2943 291.713 42.3848C291.269 42.4754 290.762 42.5207 290.191 42.5207C289.158 42.5207 288.388 42.3305 287.89 41.941C287.392 41.5515 287.147 40.8993 287.147 39.9753V17.5463C287.428 17.4738 287.799 17.3832 288.243 17.2836C288.687 17.1839 289.194 17.1205 289.765 17.1205C290.798 17.1205 291.55 17.3108 292.039 17.7003C292.519 18.0898 292.763 18.7601 292.763 19.7113V42.095H292.754Z" fill="#289146"/>
<path d="M303.915 37.6381C304.667 38.1725 305.708 38.4352 307.067 38.4352C307.674 38.4352 308.317 38.3446 308.987 38.1725C309.667 37.9913 310.247 37.783 310.754 37.5384C310.998 37.8192 311.225 38.1363 311.424 38.4896C311.614 38.8429 311.714 39.2686 311.714 39.7578C311.714 40.6817 311.243 41.4336 310.301 42.0405C309.359 42.6384 307.928 42.9464 305.998 42.9464C303.326 42.9464 301.197 42.3576 299.612 41.1709C298.027 39.9842 297.239 38.0366 297.239 35.31V10.5439C297.483 10.4714 297.845 10.3809 298.307 10.2812C298.769 10.1725 299.268 10.1182 299.802 10.1182C300.835 10.1182 301.587 10.3084 302.076 10.6979C302.556 11.0874 302.8 11.7397 302.8 12.6636V17.9176H311.08C311.225 18.1259 311.352 18.4339 311.479 18.8234C311.605 19.213 311.669 19.6206 311.669 20.0463C311.669 21.5682 311.008 22.3291 309.694 22.3291H302.81V34.9477C302.791 36.2068 303.163 37.1036 303.915 37.6381Z" fill="#289146"/>
<path d="M317.901 32.6014C318.399 34.6124 319.368 36.107 320.809 37.0854C322.249 38.0546 324.097 38.5438 326.334 38.5438C327.829 38.5438 329.197 38.3173 330.447 37.8553C331.697 37.3933 332.693 36.9042 333.436 36.3697C334.433 36.9314 334.931 37.7285 334.931 38.7521C334.931 39.35 334.695 39.9116 334.233 40.4189C333.771 40.9352 333.137 41.3701 332.34 41.7415C331.543 42.1129 330.592 42.4027 329.514 42.6201C328.427 42.8285 327.258 42.9372 326.017 42.9372C323.952 42.9372 322.077 42.6564 320.383 42.0857C318.689 41.5241 317.24 40.6725 316.035 39.5402C314.821 38.4079 313.888 37.0129 313.227 35.3461C312.565 33.6884 312.239 31.7589 312.239 29.5668C312.239 27.447 312.556 25.581 313.199 23.9686C313.843 22.3561 314.712 21.0155 315.817 19.9375C316.923 18.8595 318.218 18.0352 319.713 17.4736C321.207 16.9119 322.811 16.6221 324.523 16.6221C326.235 16.6221 327.793 16.8938 329.197 17.4464C330.601 17.999 331.815 18.7508 332.829 19.7292C333.844 20.6984 334.623 21.8579 335.176 23.1986C335.728 24.5393 336 26.0067 336 27.601C336 28.4888 335.782 29.1319 335.357 29.5396C334.931 29.9472 334.306 30.219 333.491 30.3639L317.901 32.6014ZM324.523 20.9339C322.566 20.9339 320.935 21.5862 319.64 22.8997C318.336 24.2041 317.656 26.0792 317.584 28.525L330.719 26.668C330.574 25.0737 329.985 23.724 328.952 22.6098C327.929 21.4865 326.452 20.9339 324.523 20.9339Z" fill="#289146"/>
<path d="M24.0234 35.7544C23.2444 35.9899 22.4653 36.2254 21.6772 36.4519C22.1664 36.8142 22.6556 37.1856 23.1357 37.548C29.8481 42.6661 36.334 48.1737 43.1007 53.1196C44.7585 52.1323 46.3165 50.9909 47.7297 49.7046C42.4848 47.7932 37.8196 44.6318 32.8102 41.4522C29.8662 39.6043 26.9584 37.6476 24.0234 35.7544Z" fill="#7E2269"/>
<path d="M28.924 26.2969C28.9421 26.2969 28.9511 26.306 28.9692 26.306C30.6088 26.7951 32.2484 27.3205 33.8971 27.855C41.1168 24.9744 48.4361 22.2387 56.3261 21.9126C55.7644 19.5483 54.9129 17.3018 53.7987 15.2002C49.1879 15.6984 44.7583 17.5917 40.7091 19.8382C36.7324 21.9035 32.8372 24.1229 28.924 26.2969Z" fill="#7E2269"/>
<path d="M43.3451 29.8208C42.8197 29.9657 42.3034 30.1197 41.778 30.2737C46.7239 31.6506 51.7333 32.6199 56.8423 32.4025C57.0145 31.1433 57.105 29.857 57.105 28.5526C57.105 28.4076 57.096 28.2718 57.096 28.1268C52.5305 27.9456 47.8744 28.5616 43.3451 29.8208Z" fill="#7E2269"/>
<path d="M24.4037 31.6144C25.4636 31.1977 26.5325 30.772 27.5923 30.3462C27.6648 30.319 27.7373 30.2919 27.8097 30.2556C27.7373 30.2285 27.6648 30.2013 27.5923 30.1651C26.4691 29.7302 25.3458 29.2864 24.2316 28.8516C23.3892 29.3045 22.5377 29.7484 21.6862 30.1832C22.6011 30.6633 23.5069 31.1343 24.4037 31.6144Z" fill="#7E2269"/>
<path d="M29.105 34.1869C33.8788 36.832 38.6165 39.5405 43.499 41.9772C46.1623 43.327 49.0247 44.3778 51.9597 44.9032C53.3276 42.9556 54.4508 40.8268 55.3023 38.5622C47.7113 38.0639 40.8086 35.437 33.8788 32.665C32.2845 33.1814 30.6993 33.6796 29.105 34.1869Z" fill="#7E2269"/>
<path d="M19.8745 27.1939C19.2766 26.9765 18.6878 26.7591 18.0899 26.5508C17.5464 26.9222 16.9939 27.2936 16.4413 27.6559C16.9395 27.8733 17.4468 28.0998 17.9541 28.3353C18.5972 27.9639 19.2404 27.5835 19.8745 27.1939Z" fill="#7E2269"/>
<path d="M0.0273438 29.8115C0.0364023 30.1195 0.0635758 30.4184 0.0816929 30.7264C1.23213 30.6358 2.32821 30.4819 3.37901 30.2735C2.27386 30.047 1.1506 29.9021 0.0273438 29.8115Z" fill="#7E2269"/>
<path d="M9.66535 32.3392C9.11278 32.0765 8.55115 31.8319 7.9714 31.6055C7.91705 31.6236 7.8627 31.6417 7.80835 31.6508C5.64335 32.2396 3.45118 32.5747 1.22278 32.7016C0.914787 32.7197 0.615852 32.7287 0.307861 32.7378C0.38033 33.2088 0.461861 33.6708 0.552446 34.1328C3.16131 33.9245 5.78829 33.5168 8.28845 32.8103C8.75043 32.6744 9.20337 32.5023 9.66535 32.3392Z" fill="#7E2269"/>
<path d="M16.3324 32.774C16.9484 33.1544 17.5553 33.544 18.1532 33.9516C18.7873 33.7342 19.4214 33.5077 20.0555 33.2722C19.358 32.8555 18.6604 32.4479 17.9539 32.0493C17.4104 32.303 16.8669 32.5385 16.3324 32.774Z" fill="#7E2269"/>
<path d="M12.8994 34.1328C11.604 34.5948 10.2905 35.0115 8.93173 35.3376C6.7305 35.8086 4.52021 36.0532 2.28275 36.1619C1.86605 36.1801 1.45842 36.1891 1.05078 36.1982C1.18666 36.6873 1.34066 37.1765 1.50371 37.6566C5.92429 37.3667 10.2271 36.4337 14.4393 35.1564C13.923 34.8122 13.4157 34.468 12.8994 34.1328Z" fill="#7E2269"/>
<path d="M17.6007 37.5747C16.4956 37.8646 15.3904 38.1363 14.2762 38.399C10.3177 39.2596 6.32283 39.7216 2.28271 39.7669C6.63988 49.9668 16.7583 57.114 28.5525 57.114C31.8589 57.114 35.0203 56.5433 37.9734 55.5107C32.1488 50.5375 26.6502 45.3198 20.8981 40.3285C19.811 39.4045 18.7149 38.4715 17.6007 37.5747Z" fill="#7E2269"/>
<path d="M3.43336 28.0178C5.00049 28.1718 6.50421 28.4888 7.9717 28.9236C8.60579 28.67 9.23084 28.3982 9.83776 28.0993C6.74879 26.9489 3.39712 26.4416 0.108867 26.2061C0.0635747 26.7224 0.0364023 27.2478 0.0273438 27.7732C1.16872 27.7913 2.28293 27.8819 3.43336 28.0178Z" fill="#7E2269"/>
<path d="M10.4809 21.4235C12.8905 21.7949 15.2729 22.3293 17.6371 22.9363C18.7151 22.0667 19.7931 21.1608 20.9073 20.2006C27.6197 14.3941 33.8248 8.34293 40.7183 2.71757C37.0315 0.978324 32.9099 0 28.5618 0C15.4903 0 4.48412 8.78679 1.08716 20.7713C4.23048 20.735 7.35568 20.9524 10.4809 21.4235Z" fill="#7E2269"/>
<path d="M13.0263 26.2877C13.5064 25.9797 13.9774 25.6717 14.4485 25.3366C12.9719 24.8837 11.4773 24.476 9.95544 24.1227C6.89365 23.4252 3.71409 22.9995 0.561717 22.8364C0.471131 23.2803 0.389607 23.7332 0.317139 24.1861C3.20682 24.1952 6.06932 24.4398 8.91371 25.0376C10.3359 25.3819 11.6856 25.8076 13.0263 26.2877Z" fill="#7E2269"/>
<path d="M13.1529 29.5488C12.6547 29.8025 12.1384 30.0471 11.6311 30.2735C12.1021 30.4819 12.5641 30.6993 13.0261 30.9348C13.5334 30.6993 14.0316 30.4547 14.5298 30.201C14.0769 29.9746 13.6149 29.7662 13.1529 29.5488Z" fill="#7E2269"/>
<path d="M21.6499 24.0596C22.3836 24.277 23.1174 24.4944 23.8511 24.7209C28.6341 21.6772 33.3989 18.4886 38.2542 15.5174C41.9864 13.1622 45.8544 11.0515 50.1753 9.90107C48.8165 8.32488 47.2856 6.89364 45.6189 5.64355C44.8579 6.12366 44.1332 6.64 43.4357 7.16539C35.9896 12.4918 29.0779 18.6426 21.6499 24.0596Z" fill="#7E2269"/>
<path d="M7.97153 28.9239C6.50404 28.4891 5.00032 28.172 3.43319 28.018C2.28276 27.8821 1.16855 27.7916 0.0181141 27.7734C0.00905552 28.0361 0 28.2898 0 28.5525C0 28.9692 0.0181179 29.3859 0.0362351 29.8025C1.1595 29.8931 2.2737 30.0471 3.3879 30.2645C5.00938 29.9475 6.53122 29.4946 7.97153 28.9239Z" fill="white"/>
<path d="M11.6312 30.2739C10.4445 30.8084 9.22164 31.2613 7.97156 31.6055C8.54225 31.832 9.11294 32.0766 9.66551 32.3393C10.8069 31.9226 11.9301 31.4515 13.0262 30.9352C12.5642 30.7087 12.1023 30.4823 11.6312 30.2739Z" fill="white"/>
<path d="M16.3325 32.7739C15.1911 33.2721 14.0497 33.7251 12.8993 34.1327C13.4156 34.4679 13.932 34.803 14.4302 35.1563C15.6803 34.7759 16.9122 34.3773 18.1533 33.9425C17.5463 33.553 16.9394 33.1544 16.3325 32.7739Z" fill="white"/>
<path d="M23.1354 37.5565C22.6553 37.1851 22.1661 36.8228 21.677 36.4604C20.3272 36.85 18.9594 37.2214 17.5916 37.5837C18.7058 38.4805 19.8018 39.4135 20.8889 40.3375C26.6501 45.3288 32.1487 50.5465 37.9643 55.5196C39.7669 54.8946 41.479 54.0884 43.0914 53.1282C36.3428 48.1822 29.8478 42.6656 23.1354 37.5565Z" fill="white"/>
<path d="M19.8745 27.1938C20.6264 26.7319 21.3873 26.2699 22.1391 25.8079C22.7098 25.4455 23.2805 25.0832 23.8512 24.7208C23.1175 24.4944 22.3837 24.277 21.65 24.0596C20.4814 24.9111 19.2948 25.7445 18.09 26.5507C18.6878 26.759 19.2766 26.9764 19.8745 27.1938Z" fill="white"/>
<path d="M27.5921 30.1739C27.6645 30.2011 27.737 30.2283 27.8095 30.2645C29.8386 29.4855 31.8587 28.6612 33.8878 27.8549C32.2391 27.3296 30.5995 26.8041 28.9599 26.3059C28.9418 26.3059 28.9327 26.2969 28.9146 26.2969C27.3566 27.1665 25.7985 28.018 24.2223 28.8604C25.3456 29.2953 26.4688 29.7391 27.5921 30.1739Z" fill="white"/>
<path d="M14.4484 25.3458C15.5082 24.603 16.5681 23.7967 17.6279 22.9452C15.2637 22.3293 12.8813 21.8039 10.4717 21.4325C7.34648 20.9614 4.23033 20.744 1.07796 20.7802C0.887726 21.4596 0.706557 22.1481 0.570679 22.8547C3.714 23.0177 6.89355 23.4435 9.96441 24.141C11.4772 24.4761 12.9718 24.8928 14.4484 25.3458Z" fill="white"/>
<path d="M41.7781 30.2739C39.133 31.0348 36.497 31.8411 33.879 32.6745C40.7998 35.4464 47.7024 38.0643 55.3025 38.5716C56.0363 36.6149 56.5617 34.5496 56.8425 32.4117C51.7334 32.6201 46.7241 31.6508 41.7781 30.2739Z" fill="white"/>
<path d="M21.6861 30.1924C20.5447 30.7812 19.3943 31.3609 18.2258 31.9226C18.1352 31.9679 18.0355 32.0041 17.9449 32.0494C18.6515 32.448 19.349 32.8556 20.0465 33.2723C21.505 32.7378 22.9543 32.1853 24.3946 31.6146C23.5069 31.1345 22.601 30.6634 21.6861 30.1924Z" fill="white"/>
<path d="M13.026 26.2881C11.6854 25.808 10.3266 25.3732 8.92252 25.038C6.07813 24.4402 3.21563 24.1956 0.325951 24.1865C0.226307 24.8478 0.153839 25.5272 0.0994873 26.2066C3.38774 26.4421 6.73941 26.9494 9.82837 28.0998C10.9335 27.5563 11.9934 26.9584 13.026 26.2881Z" fill="white"/>
<path d="M17.954 28.3352C17.4467 28.0996 16.9485 27.8732 16.4412 27.6558C16.2782 27.7645 16.1242 27.8732 15.9611 27.9819C15.0462 28.5344 14.1132 29.0598 13.153 29.549C13.6149 29.7664 14.0679 29.9748 14.5208 30.2012C15.6803 29.6124 16.8217 28.9874 17.954 28.3352Z" fill="white"/>
<path d="M29.105 34.187C27.4202 34.7215 25.7171 35.2469 24.0232 35.7541C26.9582 37.6474 29.8569 39.604 32.8191 41.452C37.8284 44.6315 42.4936 47.793 47.7385 49.7043C49.3147 48.2731 50.7278 46.6606 51.9598 44.9033C49.0248 44.3688 46.1623 43.3271 43.4991 41.9774C38.6165 39.5406 33.8789 36.8321 29.105 34.187Z" fill="white"/>
<path d="M8.92262 35.3375C10.2814 35.0114 11.5949 34.5947 12.8903 34.1327C11.8485 33.4714 10.7706 32.8645 9.65636 32.3301C9.20344 32.4931 8.74145 32.6652 8.27947 32.8102C5.7793 33.5167 3.15232 33.9244 0.543457 34.1327C0.679335 34.8302 0.851449 35.5096 1.03262 36.189C1.44025 36.18 1.85695 36.1709 2.26458 36.1528C4.51111 36.0622 6.73045 35.8176 8.92262 35.3375Z" fill="#DBA0C7"/>
<path d="M14.5298 30.2012C14.0316 30.4548 13.5334 30.6994 13.0261 30.9349C14.1494 31.4965 15.2545 32.1125 16.3325 32.7738C16.876 32.5383 17.4105 32.2937 17.954 32.0401C16.8217 31.406 15.6893 30.7809 14.5298 30.2012Z" fill="#DBA0C7"/>
<path d="M23.842 24.7209C25.545 25.2463 27.239 25.7717 28.9239 26.2971C32.8372 24.123 36.7324 21.9037 40.7091 19.8474C44.7583 17.6009 49.1969 15.6986 53.7987 15.2094C52.7841 13.3071 51.5703 11.5316 50.1662 9.91016C45.8453 11.0606 41.9863 13.1712 38.2451 15.5265C33.3898 18.4886 28.625 21.6682 23.842 24.7209Z" fill="#DBA0C7"/>
<path d="M18.2348 28.462C19.3943 29.0237 20.5447 29.6034 21.6951 30.1922C22.5466 29.7574 23.3891 29.3135 24.2406 28.8606C22.7912 28.2899 21.3328 27.7374 19.8834 27.1938C19.2493 27.5834 18.6062 27.9638 17.963 28.3352C18.0445 28.3805 18.1351 28.4167 18.2348 28.462Z" fill="#DBA0C7"/>
<path d="M13.0261 30.9351C11.93 31.4514 10.8068 31.9224 9.66541 32.3391C10.7796 32.8736 11.8576 33.4715 12.8993 34.1418C14.0497 33.7342 15.1911 33.2812 16.3325 32.783C15.2545 32.1127 14.1494 31.4967 13.0261 30.9351Z" fill="#DBA0C7"/>
<path d="M19.8745 27.1937C21.3239 27.7282 22.7823 28.2898 24.2317 28.8605C25.8079 28.018 27.3659 27.1575 28.924 26.2969C27.2391 25.7715 25.5542 25.237 23.8422 24.7207C23.2715 25.083 22.7008 25.4545 22.1301 25.8077C21.3873 26.2788 20.6264 26.7408 19.8745 27.1937Z" fill="#DBA0C7"/>
<path d="M17.9539 28.335C16.8307 28.9872 15.6893 29.6122 14.5298 30.201C15.6893 30.7808 16.8307 31.4058 17.9539 32.0399C18.0445 31.9946 18.1441 31.9584 18.2347 31.9131C19.3942 31.3515 20.5447 30.7717 21.6951 30.1829C20.5537 29.5941 19.4033 29.0144 18.2347 28.4527C18.1351 28.4165 18.0445 28.3803 17.9539 28.335Z" fill="#DBA0C7"/>
<path d="M13.1531 29.549C12.5099 29.25 11.8668 28.9421 11.2145 28.6612C10.7616 28.4529 10.2996 28.2717 9.82859 28.0996C9.22166 28.3985 8.59662 28.6703 7.96252 28.9239C9.21261 29.2953 10.4355 29.7483 11.6222 30.2827C12.1476 30.0472 12.6549 29.8026 13.1531 29.549Z" fill="#DBA0C7"/>
<path d="M17.6368 22.9365C18.9866 23.2898 20.3182 23.6612 21.6498 24.0597C29.0778 18.6427 35.9895 12.492 43.4266 7.17458C44.1241 6.64919 44.8578 6.13285 45.6097 5.65274C44.0878 4.52042 42.4482 3.53304 40.709 2.71777C33.8154 8.34314 27.6013 14.4033 20.8979 20.2008C19.7837 21.161 18.7058 22.0759 17.6368 22.9365Z" fill="#DBA0C7"/>
<path d="M18.0899 26.5508C16.8851 26.125 15.6712 25.7174 14.4483 25.3369C13.9773 25.663 13.5062 25.9801 13.0261 26.2881C14.1675 26.6957 15.2998 27.1577 16.4412 27.6559C16.9938 27.2936 17.5463 26.9222 18.0899 26.5508Z" fill="#DBA0C7"/>
<path d="M7.80834 31.6508C7.86269 31.6327 7.91704 31.6146 7.9714 31.6055C7.67246 31.4878 7.38259 31.361 7.08366 31.2523C5.88793 30.8446 4.64691 30.5276 3.38777 30.2739C2.33698 30.4823 1.24089 30.6363 0.0904541 30.7269C0.144805 31.4062 0.208213 32.0766 0.307858 32.7469C0.615848 32.7378 0.914783 32.7288 1.22277 32.7107C3.45118 32.5748 5.64335 32.2396 7.80834 31.6508Z" fill="#DBA0C7"/>
<path d="M7.97144 28.9238C6.53113 29.4945 5.0093 29.9565 3.38782 30.2736C4.64696 30.5272 5.88798 30.8442 7.08371 31.2519C7.3917 31.3606 7.67251 31.4874 7.97144 31.6052C9.22153 31.2609 10.4444 30.808 11.6311 30.2736C10.4444 29.7482 9.22153 29.2862 7.97144 28.9238Z" fill="#DBA0C7"/>
<path d="M21.6499 24.0598C20.3183 23.6703 18.9776 23.2898 17.637 22.9365C16.5771 23.788 15.5172 24.5942 14.4574 25.337C15.6803 25.7084 16.8851 26.1251 18.0989 26.5509C19.2856 25.7447 20.4723 24.9113 21.6499 24.0598Z" fill="#DBA0C7"/>
<path d="M13.1531 29.5492C14.1133 29.06 15.0463 28.5346 15.9613 27.982C16.1243 27.8824 16.2783 27.7646 16.4414 27.6559C15.309 27.1577 14.1677 26.7048 13.0263 26.2881C11.9845 26.9494 10.9247 27.5563 9.82861 28.0907C10.2997 28.2628 10.7616 28.4531 11.2146 28.6524C11.8758 28.9332 12.5099 29.2412 13.1531 29.5492Z" fill="#DBA0C7"/>
<path d="M27.5923 30.3462C26.5325 30.7719 25.4726 31.1977 24.4037 31.6144C25.9799 32.4568 27.547 33.3174 29.1051 34.187C30.6994 33.6797 32.2846 33.1724 33.8789 32.6742C31.8679 31.868 29.8479 31.0527 27.8097 30.2646C27.7372 30.2918 27.6648 30.319 27.5923 30.3462Z" fill="#DBA0C7"/>
<path d="M41.778 30.2736C42.3034 30.1287 42.8198 29.9657 43.3452 29.8207C47.8654 28.5616 52.5305 27.9365 57.0961 28.1268C57.0689 25.9889 56.7971 23.9145 56.3261 21.9126C48.4361 22.2387 41.1168 24.9744 33.8971 27.855C36.506 28.6975 39.1329 29.5399 41.778 30.2736Z" fill="#DBA0C7"/>
<path d="M17.6006 37.5751C16.568 36.7417 15.5172 35.9264 14.4301 35.1655C10.2088 36.4428 5.91508 37.3758 1.49451 37.6657C1.73909 38.3813 1.99273 39.0788 2.29166 39.7673C6.32272 39.722 10.3266 39.26 14.2852 38.3994C15.3903 38.1367 16.4955 37.865 17.6006 37.5751Z" fill="#DBA0C7"/>
<path d="M20.0556 33.272C19.4215 33.5075 18.7874 33.734 18.1533 33.9514C19.3581 34.7576 20.5267 35.6 21.6862 36.4515C22.4652 36.2251 23.2442 35.9895 24.0323 35.754C22.7098 34.9116 21.3872 34.0782 20.0556 33.272Z" fill="#DBA0C7"/>
<path d="M14.4302 35.1655C15.5081 35.9264 16.5589 36.7417 17.6007 37.5751C18.9685 37.2218 20.3273 36.8504 21.6861 36.4518C20.5356 35.5913 19.358 34.7488 18.1532 33.9517C16.9122 34.3774 15.6803 34.7851 14.4302 35.1655Z" fill="#DBA0C7"/>
<path d="M33.879 32.6741C36.506 31.8408 39.133 31.0345 41.7781 30.2736C39.133 29.5399 36.506 28.6884 33.8881 27.855C31.859 28.6612 29.8299 29.4855 27.8098 30.2646C29.848 31.0436 31.868 31.8679 33.879 32.6741Z" fill="#DBA0C7"/>
<path d="M20.0555 33.272C21.3871 34.0782 22.7097 34.9116 24.0232 35.754C25.7262 35.2377 27.4201 34.7214 29.105 34.1869C27.547 33.3173 25.9798 32.4567 24.4036 31.6143C22.9633 32.1849 21.514 32.7375 20.0555 33.272Z" fill="#DBA0C7"/>
</svg>
